<svg xmlns="http://www.w3.org/2000/svg" width="720" height="280" viewBox="0 0 720 280">
  <rect width="720" height="280" fill="#f7f7f8" rx="8"/>
  <rect x="280" y="20" width="160" height="50" rx="6" fill="#2d6a4f" stroke="none"/>
  <text x="360" y="50" text-anchor="middle" fill="white" font-family="sans-serif" font-size="14" font-weight="bold">Load Balancer</text>
  <rect x="80" y="110" width="140" height="50" rx="6" fill="#52b788" stroke="none"/>
  <text x="150" y="140" text-anchor="middle" fill="white" font-family="sans-serif" font-size="13" font-weight="bold">App Server</text>
  <rect x="290" y="110" width="140" height="50" rx="6" fill="#52b788" stroke="none"/>
  <text x="360" y="140" text-anchor="middle" fill="white" font-family="sans-serif" font-size="13" font-weight="bold">App Server</text>
  <rect x="500" y="110" width="140" height="50" rx="6" fill="#52b788" stroke="none"/>
  <text x="570" y="140" text-anchor="middle" fill="white" font-family="sans-serif" font-size="13" font-weight="bold">App Server</text>
  <rect x="240" y="210" width="240" height="50" rx="6" fill="#1b4332" stroke="none"/>
  <text x="360" y="240" text-anchor="middle" fill="white" font-family="sans-serif" font-size="14" font-weight="bold">PostgreSQL</text>
  <line x1="320" y1="70" x2="150" y2="110" stroke="#94949e" stroke-width="2"/>
  <line x1="360" y1="70" x2="360" y2="110" stroke="#94949e" stroke-width="2"/>
  <line x1="400" y1="70" x2="570" y2="110" stroke="#94949e" stroke-width="2"/>
  <line x1="150" y1="160" x2="300" y2="210" stroke="#94949e" stroke-width="2"/>
  <line x1="360" y1="160" x2="360" y2="210" stroke="#94949e" stroke-width="2"/>
  <line x1="570" y1="160" x2="420" y2="210" stroke="#94949e" stroke-width="2"/>
</svg>
